<svg xmlns="http://www.w3.org/2000/svg" viewBox="0 0 353.67 357.26">
    <defs>
        <style>.cls-1{fill:#69c29e;}.cls-1,.cls-2{fill-rule:evenodd;}.cls-2{fill:#384a58;}</style>
    </defs>
    <title>konnex-logo</title>
    <path class="cls-1" d="M622.3-578c-53.5,5.6-101.1,34.4-129.7,78.2-6.7,10.3-16.3,30-20.1,41.3-7.4,21.9-10.6,47.1-8.7,68.8,5.2,58,33.1,105,80.7,135.9,42.5,27.6,96.8,35.1,146.4,20.1l11.5-3.4,11,5.6c6.1,3,14.7,6.5,19.1,7.6,24.9,6.2,59.7.1,74.7-13.1,8.9-7.8,12.1-19.4,7.9-28.5-1-2.2-5-7.9-8.9-12.8-8-9.8-11.4-15.2-13.7-21.7-2.6-7.3-2.2-11.1,2.4-19.9,14.4-27.9,20.8-56.9,19.8-88.6-.8-23.2-4.2-39.4-12.8-61-19.7-49.4-64.8-89.4-115.9-102.9C665.7-577.8,640.9-580,622.3-578Zm29.5,19c22.1,2,39.7,7.1,59.2,17.1,41.9,21.7,71.4,60.7,82.2,109.1,2,8.8,2.3,13,2.2,28.8-.1,29.4-5.1,50.5-18.1,75.7l-6.6,12.8.6,7.6c1,13.1,6.3,24.7,17.9,39.1,7.8,9.6,9.2,12.3,7.8,14.8-2.6,4.8-16.3,10.3-31.4,12.6-19,2.9-36.3-1.3-52.4-12.6-3.6-2.5-6.9-4-8.7-4s-8.1,1.8-14.3,4c-33,11.6-66.8,11.8-100.9.5-24.4-8.1-43.3-20.4-63.4-41.2-25.6-26.5-40.1-59.1-42.8-96.1-2.5-35.1,6.7-69.5,26.6-99.7,8.5-12.8,28.1-32.6,41-41.3,25.5-17.3,54.3-26.7,85.8-28C638.7-559.9,645.6-559.5,651.8-559Z" transform="translate(-463.26 578.73)"/>
    <path class="cls-2"
     d="M624-543q-48.9,6-83.6,40.5c-20,19.9-32.7,43-38.9,70.8-1,4.1-1.9,14.2-2.2,23.7-.9,26.2,2.9,44.5,13.6,66.5,24.9,50.9,76.4,81.8,132.5,79.2,35.1-1.5,66.4-15,91.3-39,12.8-12.4,21.1-23.6,28.8-39.2,11.3-22.7,15.1-40.8,14.2-67.5-.9-28.6-7.7-49.8-23.3-73.2-20.7-31.1-55.5-53.9-91.9-60.3C653.2-543.5,633.8-544.2,624-543ZM610.2-441.3l.3,36.8,30.3-36.8L671.2-478h34.2l-2.6,2.7c-6.2,6.8-60.8,70.3-60.8,70.7s61.9,75.5,66.3,80.3l2,2.3H676.1L650-355l-26.2-32.9-6.9,8-6.9,8V-322H583V-478h27Z" 
     transform="translate(-463.26 578.73)">
        
    </path>
</svg>