<?xml version="1.0" encoding="utf-8"?>
<!-- Generator: Adobe Illustrator 22.1.0, SVG Export Plug-In . SVG Version: 6.00 Build 0)  -->
<svg version="1.1" id="Layer_1" 
	xmlns="http://www.w3.org/2000/svg" 
	xmlns:xlink="http://www.w3.org/1999/xlink" x="0px" y="0px" viewBox="0 0 237.2 61.6" style="enable-background:new 0 0 237.2 61.6;" xml:space="preserve">
	<style>
	 	  g path {
    fill: #69C29E;
    animation: piano-odd 1s infinite linear;
  }
  
  g path:nth-child(1) {
    animation-delay: -.8s;
  }
  
  g path:nth-child(2) {
    animation-delay: -.7s;
  }

  g path:nth-child(3) {
    animation-delay: -.5s;
  }
  
  g path:nth-child(4) {
    animation-delay: -.4s;
  }
  
  g path:nth-child(5) {
    animation-delay: -.2s;
  }
  
  g path:nth-child(6) {
    animation-delay: -.14s;
  }  
  
  g path:nth-child(7) {
    animation-delay: 0s;
  }    
    
  @keyframes piano-odd {
    0% {
      opacity: 0;
    }
        
    100% {
      opacity: 1;
    }
  }

	</style>
	<g>
		<path d="M37.7,36.9l-0.5,7.7c0,0.4-0.4,0.8-0.8,0.8H11.2c-0.5,0-0.8-0.4-0.8-0.8v0c0-0.4,0.3-0.8,0.7-0.8c0.3,0,0.6-0.1,1-0.1
		c0.6-0.1,1.1-0.2,1.3-0.3c0.5-0.2,0.8-0.5,1-0.8s0.3-0.8,0.3-1.3V20.6c0-0.5-0.1-0.9-0.2-1.2c-0.2-0.3-0.5-0.6-1.1-0.9
		c-0.4-0.2-0.9-0.3-1.5-0.5C11.5,18,11.2,18,11,17.9c-0.4-0.1-0.7-0.4-0.7-0.8V17c0-0.5,0.4-0.8,0.8-0.8h14.3c0.5,0,0.8,0.4,0.8,0.8
		v0c0,0.4-0.3,0.8-0.7,0.8c-0.3,0-0.5,0.1-0.8,0.1c-0.6,0.1-1.1,0.2-1.5,0.3c-0.5,0.2-0.9,0.5-1.1,0.8c-0.2,0.4-0.3,0.8-0.3,1.3
		v19.1c0,0.9,0.1,1.6,0.2,2.1s0.4,0.9,0.7,1.1c0.4,0.3,0.9,0.4,1.5,0.5c0.6,0.1,1.5,0.1,2.6,0.1c1.1,0,2.2-0.1,3.2-0.2
		c1-0.1,1.8-0.4,2.2-0.9c0.7-0.7,1.4-1.7,2.1-2.9c0.6-1.1,1.1-2.1,1.5-3c0.1-0.3,0.4-0.5,0.7-0.5h0.1C37.3,36,37.7,36.4,37.7,36.9z" />
		<path d="M66,19.5c1.4,1.3,2.6,2.9,3.4,4.8s1.3,4,1.3,6.4c0,2.1-0.4,4.1-1.1,6.1s-1.7,3.6-3.1,4.9c-1.4,1.4-3.1,2.6-5,3.4
		c-1.9,0.8-4.2,1.2-6.8,1.2c-2.1,0-4.1-0.3-6-1s-3.5-1.7-5-3c-1.4-1.3-2.5-2.9-3.4-4.7s-1.3-3.9-1.3-6.2c0-2.4,0.4-4.5,1.2-6.5
		c0.8-1.9,1.9-3.6,3.4-5c1.4-1.4,3.1-2.4,5-3.1c1.9-0.7,4-1.1,6.2-1.1c2.2,0,4.2,0.4,6.1,1.1S64.6,18.2,66,19.5z M60.8,40.3
		c0.6-1.2,1.1-2.7,1.3-4.2s0.4-3.4,0.4-5.3c0-1.7-0.1-3.3-0.4-4.9c-0.2-1.6-0.6-3-1.2-4.3c-0.6-1.2-1.4-2.2-2.3-3
		c-1-0.8-2.2-1.1-3.6-1.1c-2.5,0-4.4,1.2-5.6,3.5s-1.9,5.7-1.9,10c0,1.8,0.1,3.5,0.4,5.2c0.3,1.6,0.7,3,1.3,4.2
		c0.6,1.2,1.4,2.2,2.3,2.8s2.1,1,3.5,1c1.4,0,2.5-0.3,3.5-1S60.2,41.5,60.8,40.3z"/>
		<path d="M104.3,45.3H90.1c-0.5,0-0.8-0.4-0.8-0.8v0c0-0.4,0.3-0.8,0.7-0.8c0.6-0.1,1.2-0.2,1.9-0.3c1-0.2,1.5-0.5,1.5-0.8
		c0-0.1,0-0.2,0-0.4s-0.1-0.3-0.2-0.6l-2.3-5.5c-0.1-0.3-0.4-0.5-0.8-0.5h-8.9c-0.3,0-0.6,0.2-0.8,0.5c-0.2,0.4-0.4,0.9-0.6,1.5
		c-0.3,0.8-0.5,1.4-0.7,2c-0.3,0.8-0.4,1.3-0.5,1.7c0,0.3-0.1,0.6-0.1,0.7c0,0.4,0.3,0.8,1,1.1c0.6,0.3,1.4,0.5,2.6,0.6
		c0.4,0,0.7,0.4,0.7,0.8v0c0,0.5-0.4,0.8-0.8,0.8H71.8c-0.5,0-0.8-0.4-0.8-0.8v0c0-0.4,0.3-0.8,0.7-0.8c0.3,0,0.5-0.1,0.8-0.1
		c0.6-0.1,1-0.3,1.3-0.5c0.6-0.3,1-0.7,1.4-1.2s0.7-1,1-1.7c1.6-3.8,3.2-7.7,4.8-11.5c1.5-3.7,3.2-7.8,5.1-12.2
		c0.1-0.3,0.4-0.5,0.8-0.5h3c0.3,0,0.6,0.2,0.8,0.5c2.6,6.3,4.6,11.4,6.1,15.1c1.5,3.8,2.8,7,3.9,9.5c0.2,0.4,0.4,0.8,0.7,1.1
		c0.3,0.3,0.7,0.7,1.2,1c0.4,0.2,0.8,0.4,1.3,0.5c0.2,0.1,0.5,0.1,0.7,0.1c0.4,0.1,0.7,0.4,0.7,0.8v0.1
		C105.2,45,104.8,45.3,104.3,45.3z M89.4,32.4l-3-7.5c-0.3-0.7-1.2-0.7-1.5,0l-3,7.5c-0.2,0.5,0.2,1.1,0.8,1.1h5.9
		C89.2,33.6,89.6,33,89.4,32.4z"/>
		<path d="M131.6,19.2c1.8,1.2,3.2,2.7,4.3,4.6c1.1,1.9,1.6,4.3,1.6,7.1c0,2.5-0.5,4.6-1.5,6.4c-1,1.8-2.3,3.3-3.9,4.5
		c-1.6,1.2-3.5,2-5.6,2.6c-2.1,0.6-4.3,0.9-6.6,0.9h-13.8c-0.5,0-0.8-0.4-0.8-0.8v0c0-0.4,0.3-0.8,0.7-0.8c0.3,0,0.6,0,0.9-0.1
		c0.7-0.1,1.1-0.2,1.3-0.2c0.5-0.2,0.8-0.5,1-0.8c0.2-0.3,0.3-0.8,0.3-1.3V20.6c0-0.5-0.1-0.9-0.3-1.3c-0.2-0.4-0.5-0.7-1-0.9
		s-1.1-0.4-1.7-0.5c-0.2,0-0.4-0.1-0.6-0.1c-0.4-0.1-0.7-0.4-0.7-0.8v0c0-0.5,0.4-0.8,0.8-0.8h14.7c1.7,0,3.4,0.2,5.3,0.6
		C128.1,17.3,129.9,18.1,131.6,19.2z M127.4,40.1c0.7-1.1,1.2-2.4,1.5-3.9c0.3-1.5,0.5-3.3,0.5-5.2c0-1.9-0.2-3.7-0.6-5.3
		s-1-2.9-1.8-4.1s-1.8-2-3-2.6s-2.5-0.9-4-0.9c-0.5,0-1,0-1.6,0c-0.6,0-1.1,0-1.4,0.1v22.1c0,0.5,0.1,0.9,0.2,1.3
		c0.1,0.4,0.4,0.7,0.7,1s0.7,0.5,1.2,0.7c0.5,0.2,1.1,0.2,1.8,0.2c1.5,0,2.9-0.3,4-0.9S126.8,41.2,127.4,40.1z"/>
		<path d="M155.6,45.3h-14.5c-0.5,0-0.8-0.4-0.8-0.8v0c0-0.4,0.3-0.8,0.8-0.8c0.3,0,0.5,0,0.9-0.1c0.7-0.1,1.2-0.1,1.5-0.2
		c0.5-0.2,0.9-0.5,1-0.8c0.2-0.3,0.3-0.8,0.3-1.3V20.6c0-0.5-0.1-0.9-0.3-1.2s-0.5-0.6-1-0.9c-0.3-0.1-0.8-0.3-1.5-0.4
		c-0.4-0.1-0.7-0.1-1-0.2c-0.4-0.1-0.7-0.4-0.7-0.8V17c0-0.5,0.4-0.8,0.8-0.8h14.5c0.5,0,0.8,0.4,0.8,0.8v0c0,0.4-0.3,0.8-0.7,0.8
		c-0.2,0-0.5,0.1-0.8,0.1c-0.6,0.1-1.1,0.2-1.6,0.3c-0.5,0.2-0.9,0.5-1.1,0.8c-0.2,0.4-0.3,0.8-0.3,1.3V41c0,0.5,0.1,0.9,0.3,1.3
		c0.2,0.3,0.5,0.6,1.1,0.9c0.3,0.1,0.8,0.2,1.4,0.4c0.4,0.1,0.7,0.1,1,0.1c0.4,0.1,0.7,0.4,0.7,0.8v0
		C156.5,45,156.1,45.3,155.6,45.3z"/>
		<path d="M192.6,17.1c0,0.4-0.3,0.8-0.7,0.8c-0.3,0-0.6,0.1-0.9,0.1c-0.7,0.1-1.4,0.4-1.9,0.8c-0.5,0.4-0.9,1-1.1,1.9
		c-0.2,0.9-0.3,2.2-0.3,3.9v20c0,0.5-0.4,0.8-0.8,0.8h-2.4c-0.2,0-0.5-0.1-0.6-0.3l-16.4-20.4c-0.5-0.6-1.5-0.3-1.5,0.5v11.3
		c0,1.7,0.1,3,0.3,3.9c0.2,0.9,0.6,1.5,1.1,1.9c0.4,0.3,1,0.6,1.8,0.8c0.5,0.1,0.9,0.3,1.3,0.3c0.4,0.1,0.6,0.4,0.6,0.8v0.1
		c0,0.5-0.4,0.8-0.8,0.8h-10.9c-0.5,0-0.8-0.4-0.8-0.8v-0.1c0-0.4,0.3-0.7,0.7-0.8c0.4-0.1,0.7-0.1,1.2-0.2c0.7-0.2,1.3-0.4,1.7-0.7
		c0.5-0.4,0.9-1,1.1-1.8c0.2-0.8,0.3-2.1,0.3-4V23.1c0-0.7-0.1-1.3-0.3-1.9c-0.2-0.6-0.5-1.1-1-1.6c-0.5-0.5-1-0.8-1.7-1.1
		c-0.4-0.2-0.9-0.4-1.5-0.5c-0.4-0.1-0.6-0.4-0.6-0.8V17c0-0.5,0.4-0.8,0.8-0.8h9.7c0.2,0,0.5,0.1,0.6,0.3l14.2,17.6
		c0.5,0.6,1.5,0.3,1.5-0.5v-8.7c0-1.7-0.1-3.1-0.3-3.9c-0.2-0.9-0.6-1.5-1.1-1.9c-0.4-0.3-1-0.6-1.8-0.8c-0.5-0.1-0.9-0.2-1.3-0.3
		c-0.4-0.1-0.6-0.4-0.6-0.8V17c0-0.5,0.4-0.8,0.8-0.8h10.9C192.2,16.2,192.6,16.6,192.6,17.1L192.6,17.1z"/>
		<path d="M226.8,33.5c-0.4,0-0.8,0.1-1.1,0.1s-0.7,0.2-1.2,0.3c-0.6,0.2-0.9,0.5-1.1,0.9s-0.3,0.8-0.3,1.3v3.4c0,0.7,0,1.2,0,1.7
		c0,0.3,0,0.6,0,1c0,0.3-0.1,0.6-0.4,0.8c-1.3,0.7-3.2,1.4-5.6,2.1c-2.7,0.7-5.1,1.1-7.4,1.1c-2.1,0-4.1-0.3-5.9-1
		c-1.8-0.6-3.5-1.6-4.9-2.9c-1.4-1.3-2.5-2.9-3.3-4.7c-0.8-1.9-1.2-4-1.2-6.5c0-2.3,0.4-4.4,1.1-6.3s1.8-3.6,3.3-5
		c1.4-1.4,3.1-2.4,5.1-3.2c2-0.8,4.2-1.1,6.7-1.1c1.7,0,3.2,0.2,4.6,0.6c1.2,0.3,2.2,0.7,3,1.1c0.3,0.1,0.6,0.1,0.9-0.1l0.6-0.6
		c0.1-0.1,0.3-0.2,0.5-0.2h0.7c0.4,0,0.8,0.4,0.8,0.8l0.2,9c0,0.5-0.4,0.8-0.8,0.8h-0.4c-0.3,0-0.7-0.2-0.8-0.6
		c-1-2.9-2.2-5.1-3.5-6.5c-1.4-1.5-3.3-2.3-5.5-2.3c-2.6,0-4.7,1.2-6.1,3.4c-1.4,2.3-2.1,5.5-2.1,9.5c0,4.3,0.7,7.6,2.1,10.1
		c1.4,2.4,3.4,3.6,6,3.6c1.2,0,2.3-0.2,3.2-0.5c0.8-0.3,1.4-0.6,1.9-1c0.2-0.1,0.3-0.4,0.3-0.6v-5.5c0-0.5-0.1-0.9-0.3-1.2
		c-0.2-0.3-0.5-0.6-1.1-0.9c-0.4-0.2-0.9-0.3-1.5-0.5c-0.3-0.1-0.6-0.1-0.9-0.2c-0.4-0.1-0.7-0.4-0.7-0.8v-0.1
		c0-0.5,0.4-0.8,0.8-0.8H226c0.5,0,0.8,0.4,0.8,0.8V33.5z"/>
	</g>
</svg>
